<svg width="61" height="61" viewBox="0 0 61 61" fill="none" xmlns="http://www.w3.org/2000/svg">
<g id="wh 1" clip-path="url(#clip0_1_1088)">
<path id="Vector" d="M30.5 60.5449C47.0933 60.5449 60.5448 47.0934 60.5448 30.5001C60.5448 13.9068 47.0933 0.455322 30.5 0.455322C13.9067 0.455322 0.455231 13.9068 0.455231 30.5001C0.455231 47.0934 13.9067 60.5449 30.5 60.5449Z" stroke="#0A5FF9"/>
<path id="Vector_2" d="M30.5 40.9701H30.4985C28.649 40.9731 26.832 40.4835 25.2341 39.552L24.9043 39.3596L24.5359 39.4601L20.4206 40.583L21.5411 36.4657L21.6413 36.0975L21.4491 35.7679C20.5167 34.1696 20.0267 32.3518 20.0298 30.5015V30.4999C20.0298 24.7172 24.7173 20.0298 30.5 20.0298C36.2827 20.0298 40.9701 24.7172 40.9701 30.4999C40.9701 36.2826 36.2827 40.9701 30.5 40.9701Z" stroke="#0A5FF9" stroke-width="2"/>
<path id="Vector_3" d="M26.5089 25.4938L26.2813 25.5029C26.1339 25.5118 25.9899 25.5505 25.8579 25.6167C25.7344 25.6865 25.6217 25.7739 25.5233 25.8762C25.3867 26.0047 25.3093 26.1163 25.2262 26.2244C24.8053 26.7717 24.5787 27.4436 24.5821 28.1341C24.5844 28.6917 24.73 29.2346 24.9576 29.7421C25.4232 30.7687 26.189 31.8556 27.1996 32.8627C27.4432 33.1051 27.6822 33.3487 27.9394 33.5751C29.1951 34.6807 30.6916 35.478 32.3095 35.9036L32.9559 36.0026C33.1665 36.014 33.377 35.9981 33.5887 35.9878C33.9202 35.9707 34.2438 35.8809 34.5367 35.725C34.6858 35.6481 34.8312 35.5646 34.9726 35.4746C34.9726 35.4746 35.0216 35.4427 35.1149 35.3722C35.2685 35.2584 35.363 35.1775 35.4904 35.0444C35.5848 34.9465 35.6668 34.8315 35.7294 34.7007C35.8182 34.5152 35.907 34.1613 35.9434 33.8665C35.9707 33.6411 35.9627 33.5182 35.9593 33.442C35.9548 33.3202 35.8534 33.1939 35.7431 33.1404L35.0807 32.8434C35.0807 32.8434 34.0906 32.412 33.4852 32.1366C33.4218 32.1089 33.3539 32.0932 33.2849 32.09C33.207 32.082 33.1283 32.0907 33.0541 32.1157C32.98 32.1406 32.912 32.1811 32.8547 32.2345C32.8489 32.2322 32.7727 32.2971 31.9499 33.2941C31.9027 33.3575 31.8376 33.4054 31.7631 33.4318C31.6885 33.4581 31.6077 33.4617 31.5311 33.442C31.457 33.4221 31.3843 33.397 31.3138 33.3669C31.1726 33.3077 31.1237 33.285 31.027 33.244C30.3738 32.9589 29.769 32.5738 29.2345 32.1025C29.0911 31.9773 28.958 31.8407 28.8214 31.7087C28.3736 31.2799 27.9834 30.7949 27.6606 30.2656L27.5934 30.1576C27.5452 30.0849 27.5062 30.0065 27.4773 29.9242C27.4341 29.757 27.5468 29.6227 27.5468 29.6227C27.5468 29.6227 27.8233 29.32 27.9519 29.1561C28.0771 28.9967 28.1829 28.842 28.2512 28.7315C28.3855 28.5153 28.4276 28.2934 28.3571 28.1215C28.0384 27.3431 27.7084 26.5681 27.3692 25.7988C27.302 25.6463 27.1029 25.537 26.9219 25.5154C26.8605 25.5086 26.799 25.5017 26.7376 25.4972C26.5848 25.4896 26.4317 25.4911 26.279 25.5017L26.5077 25.4926L26.5089 25.4938Z" fill="#0A5FF9"/>
</g>
<defs>
<clipPath id="clip0_1_1088">
<rect width="61" height="61" fill="white"/>
</clipPath>
</defs>
</svg>
