<svg width="62" height="61" viewBox="0 0 62 61" fill="none" xmlns="http://www.w3.org/2000/svg">
<g id="tel 1" clip-path="url(#clip0_1_1121)">
<path id="Vector" d="M31.291 60.5449C47.8843 60.5449 61.3358 47.0934 61.3358 30.5001C61.3358 13.9068 47.8843 0.455322 31.291 0.455322C14.6978 0.455322 1.24625 13.9068 1.24625 30.5001C1.24625 47.0934 14.6978 60.5449 31.291 60.5449Z" stroke="#0A5FF9"/>
<path id="Vector_2" d="M27.28 33.1737L26.9857 37.5832C27.4181 37.5832 27.6093 37.3854 27.8506 37.1507L29.9283 35.1303L34.2511 38.324C35.0466 38.7629 35.6207 38.5357 35.8189 37.5854L38.6565 24.2132C38.9471 23.0484 38.2125 22.5201 37.4515 22.8656L20.7887 29.2907C19.6513 29.747 19.6579 30.3815 20.5814 30.6642L24.8574 31.9989L34.7569 25.7534C35.2242 25.47 35.6532 25.6223 35.3012 25.9348L27.28 33.1737Z" fill="#0A5FF9"/>
</g>
<defs>
<clipPath id="clip0_1_1121">
<rect width="61" height="61" fill="white" transform="translate(0.791016)"/>
</clipPath>
</defs>
</svg>
