<svg width="412" height="168" viewBox="0 0 412 168" fill="none" xmlns="http://www.w3.org/2000/svg">
<path d="M0.719971 72V0H20.496V56.16L15.216 52.032L56.016 0H77.04L18.672 72H0.719971ZM35.088 37.632L49.68 25.536L78 72H55.44L35.088 37.632Z" fill="url(#paint0_linear_1_1073)"/>
<path d="M114.491 0H134.363V72H114.491V0Z" fill="url(#paint1_linear_1_1073)"/>
<path d="M283.228 0V72H264.316V7.104L268.54 7.58401L240.7 72H220.54L192.604 7.776L196.924 7.296V72H178.012V0H208.732L234.556 61.824H226.876L252.508 0H283.228Z" fill="url(#paint2_linear_1_1073)"/>
<path d="M340.956 58.176V42.144H390.588V58.176H340.956ZM379.26 0L411.996 72H390.78L363.324 8.448H369.084L341.532 72H320.316L353.052 0H379.26Z" fill="url(#paint3_linear_1_1073)"/>
<path d="M41.136 94C47.152 94 52.336 95.024 56.688 97.072C61.104 99.12 64.464 102.032 66.768 105.808C69.072 109.52 70.224 113.872 70.224 118.864C70.224 123.792 69.072 128.144 66.768 131.92C64.464 135.632 61.104 138.512 56.688 140.56C52.336 142.608 47.152 143.632 41.136 143.632H9.93597V127.696H39.888C43.088 127.696 45.584 126.928 47.376 125.392C49.168 123.792 50.064 121.616 50.064 118.864C50.064 116.048 49.168 113.872 47.376 112.336C45.584 110.736 43.088 109.936 39.888 109.936H11.664L20.592 100.72V166H0.719971V94H41.136Z" fill="url(#paint4_linear_1_1073)"/>
<path d="M122.875 125.488H149.083C152.283 125.488 154.779 124.752 156.571 123.28C158.363 121.808 159.259 119.76 159.259 117.136C159.259 114.448 158.363 112.4 156.571 110.992C154.779 109.52 152.283 108.784 149.083 108.784H120.091L129.019 99.28V166H109.147V94H151.867C157.371 94 162.171 94.992 166.267 96.976C170.363 98.896 173.563 101.584 175.867 105.04C178.171 108.432 179.323 112.464 179.323 117.136C179.323 121.68 178.171 125.68 175.867 129.136C173.563 132.592 170.363 135.28 166.267 137.2C162.171 139.12 157.371 140.08 151.867 140.08H122.875V125.488ZM133.627 132.304H155.995L181.819 166H158.779L133.627 132.304Z" fill="url(#paint5_linear_1_1073)"/>
<path d="M259.752 167.536C251.24 167.536 243.752 165.968 237.288 162.832C230.888 159.696 225.896 155.312 222.312 149.68C218.792 144.048 217.032 137.488 217.032 130C217.032 122.512 218.792 115.952 222.312 110.32C225.896 104.688 230.888 100.304 237.288 97.168C243.752 94.032 251.24 92.464 259.752 92.464C268.328 92.464 275.816 94.032 282.216 97.168C288.616 100.304 293.608 104.688 297.192 110.32C300.776 115.952 302.568 122.512 302.568 130C302.568 137.488 300.776 144.048 297.192 149.68C293.608 155.312 288.616 159.696 282.216 162.832C275.816 165.968 268.328 167.536 259.752 167.536ZM259.752 149.776C264.424 149.776 268.456 148.976 271.848 147.376C275.24 145.776 277.832 143.504 279.624 140.56C281.48 137.616 282.408 134.096 282.408 130C282.408 125.904 281.48 122.384 279.624 119.44C277.832 116.496 275.24 114.224 271.848 112.624C268.456 111.024 264.424 110.224 259.752 110.224C255.144 110.224 251.144 111.024 247.752 112.624C244.36 114.224 241.736 116.496 239.88 119.44C238.024 122.384 237.096 125.904 237.096 130C237.096 134.096 238.024 137.616 239.88 140.56C241.736 143.504 244.36 145.776 247.752 147.376C251.144 148.976 255.144 149.776 259.752 149.776Z" fill="url(#paint6_linear_1_1073)"/>
<defs>
<linearGradient id="paint0_linear_1_1073" x1="-60.7646" y1="128.355" x2="447.436" y2="127.268" gradientUnits="userSpaceOnUse">
<stop stop-color="#2C18B2"/>
<stop offset="0.0001" stop-color="#0066FF"/>
<stop offset="1" stop-color="#CF2F9B"/>
</linearGradient>
<linearGradient id="paint1_linear_1_1073" x1="-60.7646" y1="128.355" x2="447.436" y2="127.268" gradientUnits="userSpaceOnUse">
<stop stop-color="#2C18B2"/>
<stop offset="0.0001" stop-color="#0066FF"/>
<stop offset="1" stop-color="#CF2F9B"/>
</linearGradient>
<linearGradient id="paint2_linear_1_1073" x1="-60.7646" y1="128.355" x2="447.436" y2="127.268" gradientUnits="userSpaceOnUse">
<stop stop-color="#2C18B2"/>
<stop offset="0.0001" stop-color="#0066FF"/>
<stop offset="1" stop-color="#CF2F9B"/>
</linearGradient>
<linearGradient id="paint3_linear_1_1073" x1="-60.7646" y1="128.355" x2="447.436" y2="127.268" gradientUnits="userSpaceOnUse">
<stop stop-color="#2C18B2"/>
<stop offset="0.0001" stop-color="#0066FF"/>
<stop offset="1" stop-color="#CF2F9B"/>
</linearGradient>
<linearGradient id="paint4_linear_1_1073" x1="-60.7646" y1="128.355" x2="447.436" y2="127.268" gradientUnits="userSpaceOnUse">
<stop stop-color="#2C18B2"/>
<stop offset="0.0001" stop-color="#0066FF"/>
<stop offset="1" stop-color="#CF2F9B"/>
</linearGradient>
<linearGradient id="paint5_linear_1_1073" x1="-60.7646" y1="128.355" x2="447.436" y2="127.268" gradientUnits="userSpaceOnUse">
<stop stop-color="#2C18B2"/>
<stop offset="0.0001" stop-color="#0066FF"/>
<stop offset="1" stop-color="#CF2F9B"/>
</linearGradient>
<linearGradient id="paint6_linear_1_1073" x1="-60.7646" y1="128.355" x2="447.436" y2="127.268" gradientUnits="userSpaceOnUse">
<stop stop-color="#2C18B2"/>
<stop offset="0.0001" stop-color="#0066FF"/>
<stop offset="1" stop-color="#CF2F9B"/>
</linearGradient>
</defs>
</svg>
