<svg width="445" height="118" viewBox="0 0 445 118" fill="none" xmlns="http://www.w3.org/2000/svg">
<path d="M64.9 2.49999V115H34.15V13.3L48.55 26.65L0.1 35.2V11.2L42.1 2.49999H64.9ZM146.18 117.4C133.38 117.4 122.23 115 112.73 110.2C103.23 105.3 95.8797 98.45 90.6797 89.65C85.5797 80.85 83.0297 70.55 83.0297 58.75C83.0297 46.95 85.5797 36.65 90.6797 27.85C95.8797 19.05 103.23 12.25 112.73 7.45C122.23 2.55 133.38 0.0999951 146.18 0.0999951C158.88 0.0999951 169.93 2.55 179.33 7.45C188.83 12.25 196.18 19.05 201.38 27.85C206.58 36.65 209.18 46.95 209.18 58.75C209.18 70.55 206.58 80.85 201.38 89.65C196.18 98.45 188.83 105.3 179.33 110.2C169.93 115 158.88 117.4 146.18 117.4ZM146.18 92.2C156.28 92.2 164.13 89.3 169.73 83.5C175.33 77.6 178.13 69.35 178.13 58.75C178.13 48.05 175.33 39.8 169.73 34C164.13 28.2 156.28 25.3 146.18 25.3C136.08 25.3 128.18 28.2 122.48 34C116.78 39.8 113.93 48.05 113.93 58.75C113.93 69.35 116.78 77.6 122.48 83.5C128.18 89.3 136.08 92.2 146.18 92.2ZM285.7 117.4C272.9 117.4 261.75 115 252.25 110.2C242.75 105.3 235.4 98.45 230.2 89.65C225.1 80.85 222.55 70.55 222.55 58.75C222.55 46.95 225.1 36.65 230.2 27.85C235.4 19.05 242.75 12.25 252.25 7.45C261.75 2.55 272.9 0.0999951 285.7 0.0999951C298.4 0.0999951 309.45 2.55 318.85 7.45C328.35 12.25 335.7 19.05 340.9 27.85C346.1 36.65 348.7 46.95 348.7 58.75C348.7 70.55 346.1 80.85 340.9 89.65C335.7 98.45 328.35 105.3 318.85 110.2C309.45 115 298.4 117.4 285.7 117.4ZM285.7 92.2C295.8 92.2 303.65 89.3 309.25 83.5C314.85 77.6 317.65 69.35 317.65 58.75C317.65 48.05 314.85 39.8 309.25 34C303.65 28.2 295.8 25.3 285.7 25.3C275.6 25.3 267.7 28.2 262 34C256.3 39.8 253.45 48.05 253.45 58.75C253.45 69.35 256.3 77.6 262 83.5C267.7 89.3 275.6 92.2 285.7 92.2ZM391.171 103.9V19.9H413.371V103.9H391.171ZM360.271 73V50.8H444.271V73H360.271Z" fill="#1C5FF2"/>
</svg>
